<?xml version="1.0" encoding="utf-8"?>
<!-- Generator: Adobe Illustrator 26.0.1, SVG Export Plug-In . SVG Version: 6.00 Build 0)  -->
<svg version="1.1" id="Layer_1" xmlns="http://www.w3.org/2000/svg" xmlns:xlink="http://www.w3.org/1999/xlink" x="0px" y="0px"
	 viewBox="0 0 64.5 66.1" style="enable-background:new 0 0 64.5 66.1;" xml:space="preserve">
<style type="text/css">
	.st0{fill:#FFBF00;}
</style>
<g>
	<path class="st0" d="M64.5,13.6c0-1.8-0.7-2.1-2.3-2.1c-8.8,0.1-17.6,0-26.4,0c-0.8,0-1.6,0-2.7,0c0-3.3-0.1-6.2,0-9.2
		C33.2,0.5,32.6,0,30.9,0C21.3,0.1,11.7,0.1,2,0C0.3,0,0,0.7,0,2.2C0,22.8,0,43.4,0,64c0,1.6,0.4,2.1,2.1,2.1c20.1,0,40.2,0,60.3,0
		c1.5,0,2.2-0.4,2.2-2.1C64.5,47.2,64.5,30.4,64.5,13.6z M20.7,64.4c-2.8,0-5.4,0-8.3,0c0-3-0.2-5.8,0.1-8.7
		c0.2-2.1,2.3-3.6,4.3-3.5c2,0.1,3.8,1.6,3.9,3.6C20.8,58.7,20.7,61.5,20.7,64.4z M31.3,64.4c-2.9,0-5.8,0-9,0c0-2.4,0-4.7,0-7.1
		c0-4-2.2-6.5-5.7-6.5c-3.5,0-5.8,2.5-5.9,6.6c0,2.3,0,4.6,0,7.1c-3.2,0-6.1,0-9.1,0c0-20.9,0-41.7,0-62.7c9.8,0,19.7,0,29.7,0
		C31.3,22.6,31.3,43.4,31.3,64.4z M52.2,64.4c-2.8,0-5.4,0-8.2,0c0-3-0.2-6,0.1-9c0.2-2,2.3-3.3,4.3-3.1c2,0.2,3.7,1.7,3.8,3.8
		C52.3,58.8,52.2,61.5,52.2,64.4z M62.8,64.4c-2.9,0-5.8,0-9,0c0-2.6,0.1-5.2,0-7.8c-0.1-3.6-2.6-5.9-5.9-5.8
		c-3.2,0.1-5.5,2.5-5.6,6c0,0.9,0,1.9,0,2.8c0,1.6,0,3.1,0,4.9c-3.1,0-6,0-9.1,0c0-17.1,0-34.1,0-51.3c10,0,19.7,0,29.6,0
		C62.8,30.2,62.8,47.2,62.8,64.4z"/>
	<path class="st0" d="M23.5,38.1c-4.8,0-4.2-0.6-4.2,4.3c0,4.5-0.5,4,4,4c4.9,0,4.2,0.7,4.3-4.2C27.6,37.5,28.2,38.1,23.5,38.1z
		 M25.9,44.7c-1.6,0-3.1,0-4.9,0c0-1.7,0-3.2,0-4.7C25.7,38.7,26.6,39.5,25.9,44.7z"/>
	<path class="st0" d="M9.7,16.5c-4.8,0.1-4.4-0.7-4.3,4.2c0,4.7-0.7,4.2,4.1,4.1c4.8,0,4.2,0.7,4.2-4.3
		C13.8,15.9,14.2,16.6,9.7,16.5z M12,23.3c-1.2,0-2.2,0-3.3,0c-0.5,0-1-0.1-1.6-0.2c0-1.7,0-3.2,0-4.8C13.1,17.6,12.4,17.6,12,23.3z
		"/>
	<path class="st0" d="M23.2,16.5c-4.3,0-3.9-0.6-3.9,3.9c0,4.4,0,4.4,4.3,4.4c4.5,0,4,0.7,4-4C27.6,15.8,28.3,16.5,23.2,16.5z
		 M25.8,23.1c-1.5,0-3.1,0-4.8,0c0-1.6,0-3.2,0-4.7C25.7,17.1,26.9,18.2,25.8,23.1z"/>
	<path class="st0" d="M9.5,46.5c4.8,0,4.1,0.7,4.2-4.3c-0.1-4.6,0.6-4-4-4c-0.1,0-0.1,0-0.2,0c-4.8,0.1-4.1-0.5-4.1,4.2
		C5.4,46.9,4.7,46.5,9.5,46.5z M7.1,39.9c5.5-0.4,5.4-1.1,4.8,4.9c-1.5,0-3.1,0-4.8,0C7.1,43.1,7.1,41.5,7.1,39.9z"/>
	<path class="st0" d="M9.5,35.6c4.8,0,4.3,0.7,4.2-4.2c0-4.6,0.7-4.1-4.2-4.1c-4.8,0-4.1-0.5-4.2,4.1C5.4,36.2,4.9,35.7,9.5,35.6z
		 M7.1,29.2c4.9-1.2,5.5-0.6,4.9,4.8c-1.6,0-3.2,0-4.9,0C7.1,32.3,7.1,30.7,7.1,29.2z"/>
	<path class="st0" d="M23.5,27.3c-4.8,0-4.1-0.5-4.2,4.1c0,0.1,0,0.1,0,0.2c0,4.6-0.4,4,4.1,4c4.8,0,4.3,0.6,4.3-4.2
		C27.6,26.7,28.3,27.4,23.5,27.3z M25.9,33.7c-4.6,1.4-5.7,0.4-4.8-4.7c1.5,0,3.1,0,4.8,0C25.9,30.6,25.9,32.1,25.9,33.7z"/>
	<path class="st0" d="M9.6,14c4.8-0.1,4.1,0.7,4.2-4.1c0-0.1,0-0.1,0-0.2c0-4.7,0.4-4-4.1-4c-4.9,0-4.3-0.6-4.3,4.2
		C5.4,14.5,4.8,14,9.6,14z M7.2,7.4c1.7,0,3.2,0,4.8,0c0.6,6.3,0.7,5.1-4.8,5C7.2,10.8,7.2,9.2,7.2,7.4z"/>
	<path class="st0" d="M23.5,14c4.6,0,4.1,0.8,4.1-4.2c-0.1-4.8,0.5-4.1-4.1-4.2c-0.1,0-0.1,0-0.2,0c-4.6,0-4-0.5-4,4.1
		C19.3,14.7,18.8,14,23.5,14z M20.9,9.9c0-0.8,0-1.6,0-2.5c1.7,0,3.3,0,5.1,0c0.2,5.5,1.1,5.4-5.1,4.8C20.9,11.5,20.9,10.7,20.9,9.9
		z"/>
	<path class="st0" d="M41,38.7c-4.7,0-4.1-0.6-4.1,4.1c0.1,4.9-0.5,4.1,4.1,4.2c0.1,0,0.1,0,0.2,0c4.6-0.1,4,0.5,4-4.1
		C45.2,38.2,45.9,38.7,41,38.7z M43.5,45.3c-5.7,0.6-5.3,0.8-4.8-4.9c1.6,0,3.1,0,4.8,0C43.5,42.1,43.5,43.7,43.5,45.3z"/>
	<path class="st0" d="M54.9,38.7c-4.8,0-4-0.5-4.1,4.2c0.1,4.8-0.6,4.1,4.1,4.2c0.1,0,0.1,0,0.2,0c4.6-0.1,4,0.5,4-4.1
		C59.1,38.2,59.8,38.7,54.9,38.7z M56.9,45.3c-0.5,0.7-3.4,0.7-4,0c-0.8-1.1-0.6-3-0.8-4.9c2.1,0,3.6,0,5.6,0
		C57.5,42.2,57.7,44.1,56.9,45.3z"/>
	<path class="st0" d="M40.9,25.5c4.9,0,4.3,0.6,4.3-4.2c-0.1-4.5,0.8-4.2-3.9-4.1c-5,0-4.4-0.7-4.4,4.3C36.9,26,36.4,25.5,40.9,25.5
		z M38.7,18.8c1.6,0,3.1,0,4.8,0c0,1.6,0,3.2,0,4.7C38.9,24.9,37.8,23.9,38.7,18.8z"/>
	<path class="st0" d="M55,25.4c4.7,0,4.1,0.5,4.2-4.1c-0.1-4.7,0.7-4.2-4-4.2c-5,0-4.3-0.6-4.3,4.2C50.8,26.1,50.3,25.4,55,25.4z
		 M52.5,18.8c1.8,0,3.2,0,4.9,0c0,1.7,0,3.3,0,5c-1.6,0-3.2,0-4.9,0C52.5,22.1,52.5,20.5,52.5,18.8z"/>
	<path class="st0" d="M41.3,27.9c-4.9,0.1-4.3-0.8-4.4,4.4c0,0.1,0,0.1,0,0.2c0,4.2-0.5,3.8,3.9,3.8c5.2,0,4.5,0.7,4.5-4.4
		C45.2,27.6,45.8,27.9,41.3,27.9z M43.5,34.6c-1.6,0-3.1,0-4.9,0c0-1.5,0-3.1,0-4.9c1.5,0,3.1,0,4.9,0
		C43.5,31.3,43.5,32.9,43.5,34.6z"/>
	<path class="st0" d="M55.1,27.9c-4.9,0-4.2-0.7-4.3,4.2c0.1,4.7-0.6,4.1,4.1,4.1c4.9,0,4.2,0.5,4.2-4.3
		C59.2,27.4,59.6,27.9,55.1,27.9z M57.5,34.6c-1.7,0-3.3,0-5,0c0-1.6,0-3.1,0-4.8c1.7,0,3.3,0,5,0C57.5,31.4,57.5,32.9,57.5,34.6z"
		/>
</g>
</svg>
