<?xml version="1.0" encoding="utf-8"?>
<!-- Generator: Adobe Illustrator 26.0.1, SVG Export Plug-In . SVG Version: 6.00 Build 0)  -->
<svg version="1.1" id="Layer_1" xmlns="http://www.w3.org/2000/svg" xmlns:xlink="http://www.w3.org/1999/xlink" x="0px" y="0px"
	 viewBox="0 0 50.7 39.8" style="enable-background:new 0 0 50.7 39.8;" xml:space="preserve">
<style type="text/css">
	.st0{fill:#FFBF00;}
</style>
<g>
	<path class="st0" d="M17.4,38.5c4.7,0,9.4,0,14.1,0c4.8,0,9.5,0,14.3,0c-4.8,0-9.5,0-14.3,0C26.8,38.5,22.1,38.5,17.4,38.5z"/>
	<path class="st0" d="M40.8,21.7c0.5,0,1.1-0.1,1.6,0C41.9,21.7,41.4,21.7,40.8,21.7c-0.6,0-1.2-0.1-1.7,0
		C39.7,21.7,40.3,21.7,40.8,21.7z"/>
	<path class="st0" d="M29.5,24.4c-0.2,0-0.5,0.1-0.7,0C29,24.5,29.3,24.4,29.5,24.4c0.2,0,0.5,0.1,0.7,0
		C30,24.5,29.8,24.4,29.5,24.4z"/>
	<path class="st0" d="M31.6,27.9c4,0,8,0,12,0C39.7,27.9,35.7,27.9,31.6,27.9c-4.1,0-8.1,0-12.2,0C23.5,27.9,27.6,27.9,31.6,27.9z"
		/>
	<path class="st0" d="M46.1,30.9c-1.1,0-2.2,0-3.4,0c0-0.7,0-1.3,0-1.8c0.3,0,0.5,0,0.8,0c2.7-0.1,3.4-0.8,3.4-3.5
		c0-2.2,0-4.4,0-6.6c0-2.1-0.7-2.9-2.8-3.2c-3-0.4-5.9-0.9-8.8-1.4c-0.1-0.3-0.1-0.3-0.1-0.4c0-1.8,0-3.5,0-5.3c0-2-0.9-2.9-2.9-2.9
		c-2.2,0-4.4,0.1-6.6,0c-2.3-0.2-4,0.4-5,2.6c0,0.1-0.2,0.1-0.3,0.1c-2.1-1.5-4.2-3-6.3-4.6c-0.3-0.3-0.6-0.8-0.6-1.2
		c-0.2-1.3-0.8-2.2-2.1-2.5c-1.2-0.3-2.2,0.1-2.8,1C7.9,2.2,8,3.3,8.7,4.4C8.9,4.8,9,5.3,8.9,5.7c-0.8,2.4-1.6,4.8-2.5,7.1
		c-0.2,0.4-0.7,0.9-1.1,1c-1.2,0.4-2.3,1.3-2,2.5c0.4,1.7-0.7,2.3-1.7,3.1C0.8,20.1,0,20.7,0,21.9c0,1.4,0,2.7,0,4.1
		c0,1,0.5,1.9,1.5,2.2c2.3,0.6,4.5,1.2,6.8,1.8c0.3,0.1,0.7,0,0.8-0.2c0.1-0.2,0.1-0.6-0.1-0.8c-2.3-2.7-2.3-5.9-2.3-9.1
		c0-0.3,0.2-0.8,0.5-1c1.6-1.4,1.7-2.6,0.6-4.2c-0.2-0.3-0.3-0.9-0.2-1.3c0.8-2.4,1.6-4.8,2.5-7.1c0.1-0.3,0.4-0.7,0.7-0.8
		c0.7-0.3,1.5-0.5,2.3-0.8c2.2,1.6,4.5,3.3,6.8,5c-1,1.6-2,3-2.8,4.5c-0.5,1-0.9,2.1-0.9,3.1c-0.1,2.6,0,5.1,0,7.7
		c0,3.4,0.4,3.9,3.8,4.1c0.1,0,0.3,0.1,0.4,0.1c0,0.5,0,1.1,0,1.8c-1.2,0-2.3,0-3.3,0c-2.6,0-4.5,1.8-4.6,4.3
		c-0.1,2.4,1.8,4.5,4.4,4.5c9.8,0,19.6,0,29.3,0c2.6,0,4.5-2,4.5-4.4C50.7,32.8,48.8,31,46.1,30.9z M7.3,16.5
		c-0.1,0.6-0.7,1.1-1,1.7c-0.2,0-0.4,0-0.6,0c-0.4-0.5-1-1-1.1-1.6c-0.2-0.8,0.4-1.5,1.3-1.5C6.7,15,7.4,15.6,7.3,16.5z M19.5,27.9
		c-1.7,0-2-0.3-2-2c0-3,0-6,0-8.9c0-0.7,0.2-1.4,0.6-2c1.4-2.3,2.8-4.5,4.2-6.8c0.5-0.8,1-1.1,2-1.1c2.7,0,5.3,0,8,0
		C33.7,7.1,34,7.4,34,9c0,1.7,0.1,3.3,0,5c-0.1,1.2,0.4,1.6,1.6,1.8c2.8,0.3,5.5,0.8,8.3,1.2c1.8,0.3,1.9,0.5,1.9,2.3
		c0,2.2,0,4.4,0,6.6c0,1.7-0.3,2-2.1,2c-4,0-8,0-12,0C27.6,27.9,23.5,27.9,19.5,27.9z M41.4,29.2c0,0.6,0,1.1,0,1.7
		c-6.5,0-13,0-19.6,0c0-0.6,0-1.1,0-1.7C28.4,29.2,34.8,29.2,41.4,29.2z M45.8,38.5c-4.8,0-9.5,0-14.3,0c-4.7,0-9.4,0-14.1,0
		c-2.3,0-3.7-1.3-3.7-3.2c0-1.9,1.4-3.2,3.7-3.2c9.5,0,18.9,0,28.4,0c2.3,0,3.7,1.3,3.7,3.2C49.5,37.3,48.1,38.5,45.8,38.5z"/>
	<path class="st0" d="M29.8,21.2c1.3,0,1.8-0.6,1.9-1.9c0-1.3,0-2.6,0-3.9c0-1.4,0-2.7,0-4.1c0-1.2-0.6-1.8-1.8-1.9
		c-1.4,0-2.9-0.1-4.3,0c-0.7,0.1-1.4,0.5-1.8,1.1c-1,1.3-1.6,2.8-2.6,4.1c-1.1,1.5-1.3,3.1-1.2,4.8c0.1,1.1,0.6,1.7,1.8,1.7
		C24.3,21.2,27,21.3,29.8,21.2z M22,20.1c-0.7,0-0.9-0.3-0.9-1c0-1.3,0-2.6,0.9-3.7c0.4-0.5,0.9-1.1,1.1-1.7c1.1-3.5,3.9-3.3,6.6-3
		c0.3,0,0.7,0.6,0.8,0.9c0,0.3,0,0.6,0,0.9c0,0.9,0,1.9,0,2.8c0,0.9,0,1.8,0,2.7c0,0.3,0,0.6,0,0.9c0,0.8-0.3,1-1,1
		C26.9,20,24.5,20.1,22,20.1z"/>
	<path class="st0" d="M31.6,15.4c0,1.3,0,2.6,0,3.9C31.6,18,31.6,16.7,31.6,15.4c0-1.4,0-2.7,0-4.1C31.6,12.7,31.6,14,31.6,15.4z"/>
	<path class="st0" d="M42.5,24.6c-1.2-0.1-2.3-0.1-3.5,0c-0.2,0-0.4,0.4-0.6,0.6c0.2,0.2,0.4,0.5,0.7,0.6c0.1,0,0.3,0,0.4,0
		c0.4,0,0.8,0,1.2,0c0.4,0,0.9,0,1.3,0c0.1,0,0.3,0,0.4,0c0.2,0,0.4-0.4,0.6-0.6C42.9,25,42.7,24.6,42.5,24.6z"/>
	<path class="st0" d="M40.7,25.8c-0.4,0-0.8,0-1.2,0C39.9,25.8,40.3,25.8,40.7,25.8c0.4,0,0.9,0,1.3,0
		C41.6,25.8,41.1,25.8,40.7,25.8z"/>
	<path class="st0" d="M42.3,20c0.3,0,0.5-0.4,0.8-0.6c-0.3-0.2-0.5-0.5-0.9-0.6c-0.1,0-0.2,0-0.4,0c-0.4,0-0.7,0-1.1,0
		c-0.4,0-0.7,0-1.1,0c-0.1,0-0.2,0-0.4,0c-0.3,0.1-0.6,0.4-0.9,0.6c0.3,0.2,0.5,0.5,0.8,0.6C40.2,20.1,41.3,20.1,42.3,20z"/>
	<path class="st0" d="M40.7,18.8c0.4,0,0.7,0,1.1,0C41.5,18.8,41.1,18.8,40.7,18.8c-0.4,0-0.7,0-1.1,0C40,18.8,40.4,18.8,40.7,18.8z
		"/>
	<path class="st0" d="M39.1,22.8c1.1,0.1,2.2,0.1,3.3,0c0.2,0,0.4-0.4,0.6-0.6c-0.2-0.2-0.4-0.5-0.6-0.5c-0.5-0.1-1.1,0-1.6,0
		c-0.6,0-1.2-0.1-1.7,0c-0.2,0-0.4,0.3-0.7,0.5C38.7,22.5,38.9,22.8,39.1,22.8z"/>
	<path class="st0" d="M28.7,23.2c-0.3,0.1-0.5,0.4-0.7,0.6c0.3,0.2,0.5,0.5,0.8,0.6c0,0,0.1,0,0.1,0c0.2,0,0.5,0,0.7,0
		c0.2,0,0.5,0.1,0.7,0c0.3-0.2,0.6-0.4,0.9-0.6c-0.3-0.2-0.5-0.5-0.8-0.6C29.8,23.2,29.2,23.1,28.7,23.2z"/>
	<path class="st0" d="M17.3,33.2c-1.1,0-2.2,1-2.2,2.1c0,1.2,1,2.1,2.1,2.2c1.2,0,2.1-0.9,2.1-2.1C19.5,34.2,18.5,33.2,17.3,33.2z"
		/>
	<path class="st0" d="M40.2,33.2c-1.2,0-2.1,0.9-2.2,2.1c0,1.2,0.9,2.2,2.1,2.2c1.2,0,2.2-0.9,2.2-2.1
		C42.4,34.3,41.4,33.2,40.2,33.2z"/>
	<path class="st0" d="M45.9,33.2c-1.1,0-2.1,1-2.2,2.1c0,1.2,0.9,2.1,2.1,2.2c1.2,0,2.2-0.9,2.2-2.1C48.1,34.2,47.1,33.2,45.9,33.2z
		"/>
	<path class="st0" d="M23,33.2c-1.1,0-2.1,1-2.1,2.2c0,1.2,1,2.1,2.1,2.1c1.2,0,2.1-0.9,2.1-2.1C25.2,34.1,24.2,33.2,23,33.2z"/>
	<path class="st0" d="M34.4,33.2c-1.2,0-2.1,1-2.1,2.2c0,1.2,1,2.1,2.2,2.1c1.2,0,2.1-1,2.1-2.2C36.6,34.1,35.6,33.2,34.4,33.2z"/>
	<path class="st0" d="M28.7,33.2c-1.2,0-2.1,1-2.1,2.2c0,1.2,1,2.1,2.2,2.1c1.2,0,2.1-1,2.1-2.2C30.8,34.1,29.9,33.2,28.7,33.2z"/>
</g>
</svg>
