<?xml version="1.0" encoding="utf-8"?>
<!-- Generator: Adobe Illustrator 26.0.1, SVG Export Plug-In . SVG Version: 6.00 Build 0)  -->
<svg version="1.1" id="Layer_1" xmlns="http://www.w3.org/2000/svg" xmlns:xlink="http://www.w3.org/1999/xlink" x="0px" y="0px"
	 viewBox="0 0 116.3 79.3" style="enable-background:new 0 0 116.3 79.3;" xml:space="preserve">
<style type="text/css">
	.st0{fill:#FFBF00;}
</style>
<g>
	<path class="st0" d="M3.7,34.1c18.2,0,36.3,0,54.5,0c0,13.3,0,26.6,0,39.9c-13.2,0-26.4,0-39.7,0c0-0.3,0-0.7,0-1
		c0-5.8,0-11.7,0-17.5c0-1.4-0.1-1.4-1.5-1.4c-2.3,0-4.5,0-6.8,0c-1.3,0-1.4,0.1-1.4,1.4c0,5.9,0,11.7,0,17.6c0,0.3,0,0.6,0,0.9
		c-1.8,0-3.4,0-5.1,0C3.7,60.7,3.7,47.5,3.7,34.1z M39.7,47.6c-3.5,0-6.9,0-10.3,0c-0.3,0-0.8,0.4-0.8,0.7c-0.1,1.6,0,3.3,0,4.9
		c3.7,0,7.4,0,11.1,0C39.7,51.3,39.7,49.5,39.7,47.6z M39.7,55c-3.7,0-7.4,0-11.1,0c0,1.5,0,2.9,0,4.4c0,1,0.2,1.2,1.2,1.2
		c3,0,6.1,0,9.1,0c0.3,0,0.5,0,0.8,0C39.7,58.6,39.7,56.8,39.7,55z M52,53.2c0-1.7,0-3.3,0-4.9c0-0.6-0.5-0.7-1-0.7
		c-1.5,0-3,0-4.5,0c-1.6,0-3.3,0-4.9,0c0,1.9,0,3.8,0,5.6C45,53.2,48.4,53.2,52,53.2z M52,55c-3.6,0-7,0-10.5,0c0,1.9,0,3.7,0,5.6
		c3.3,0,6.5,0,9.7,0c0.3,0,0.7-0.4,0.7-0.7C52,58.3,52,56.6,52,55z"/>
	<path class="st0" d="M14.5,14.8c3.8-3.5,7.4-6.8,11-10c1.6-1.4,3.1-2.8,4.7-4.3c0.6-0.6,1.1-0.6,1.7,0c9.9,9.1,19.8,18.2,29.7,27.3
		c0.3,0.2,0.5,0.8,0.4,1c-0.1,0.3-0.6,0.5-1,0.5c-20,0-40,0-59.9,0c-0.3,0-0.9-0.2-1-0.5c-0.1-0.3,0.2-0.8,0.4-1
		c2.3-2.2,4.7-4.3,7-6.5C7.7,20.9,8,20.4,8,20c0-2.8,0-5.6,0-8.3c0-1,0.1-1.1,1.2-1.2c1.4,0,2.9,0,4.3,0c0.7,0,1,0.3,1,1
		C14.5,12.5,14.5,13.5,14.5,14.8z"/>
	<path class="st0" d="M84.9,52c0,3.5,0,6.9,0,10.4c-5.8,0-11.6,0-17.4,0c0-3.5,0-6.9,0-10.4C73.3,52,79.1,52,84.9,52z"/>
	<path class="st0" d="M67.5,38.4c0-3.5,0-6.9,0-10.3c5.8,0,11.6,0,17.4,0c0,3.4,0,6.9,0,10.3C79.1,38.4,73.3,38.4,67.5,38.4z"/>
	<path class="st0" d="M67.5,40c5.8,0,11.5,0,17.3,0c0,3.4,0,6.9,0,10.3c-5.8,0-11.5,0-17.3,0C67.5,46.9,67.5,43.5,67.5,40z"/>
	<path class="st0" d="M84.9,74.4c-5.8,0-11.6,0-17.4,0c0-3.5,0-6.9,0-10.4c5.8,0,11.6,0,17.4,0C84.9,67.4,84.9,70.9,84.9,74.4z
		 M72.4,69.2c0,2.1,1.8,3.9,3.9,3.9c2.1,0,3.9-1.8,3.9-3.9c0-2.1-1.8-3.8-3.9-3.8C74.1,65.4,72.3,67.1,72.4,69.2z"/>
	<path class="st0" d="M104.4,37.9c-5.9,10.3-11.8,20.5-17.9,30.9c0-0.5,0-0.7,0-0.9c0-11.1,0-22.1,0-33.2c0-0.4,0.1-0.9,0.4-1.3
		c0.8-1.4,1.6-2.7,2.4-4.2C94.3,32,99.3,34.9,104.4,37.9z M89.8,31.1c-0.4,0.8-0.8,1.5-1.3,2.1c-0.5,0.7-0.6,1.5-0.6,2.4
		c0,8.9,0,17.7,0,26.6c0,0.3,0,0.6,0,0.8c0.1,0,0.1,0,0.2,0c4.7-8.2,9.5-16.4,14.3-24.7C98.2,36,94,33.6,89.8,31.1z"/>
	<path class="st0" d="M107.5,41c2.9,5.1,5.8,10.1,8.7,15.1C106,62.1,95.7,68,85.3,74c0.2-0.4,0.3-0.6,0.4-0.7
		c5.6-9.7,11.1-19.3,16.7-29c0.2-0.3,0.4-0.6,0.7-0.8C104.5,42.7,106,41.9,107.5,41z M114.3,55.6c-2.5-4.3-4.9-8.4-7.3-12.6
		c-1,0.6-1.9,1.1-2.8,1.6c-0.3,0.2-0.6,0.5-0.8,0.8c-4.6,7.9-9.2,15.9-13.8,23.8c-0.1,0.2-0.2,0.4-0.3,0.7
		C97.7,65.1,106,60.4,114.3,55.6z"/>
	<path class="st0" d="M74.2,75.8c1.3,0.7,2.6,1.5,4,2.3c-0.7,0.4-1.4,0.8-2.1,1.2c-0.7-1.2-1.3-2.3-2-3.4
		C74.2,75.9,74.2,75.9,74.2,75.8z"/>
	<path class="st0" d="M77.8,76c1.5,0,2.9,0,4.5,0c-0.4,0.7-0.8,1.4-1.2,2.1c-1.2-0.7-2.3-1.3-3.4-2C77.8,76,77.8,76,77.8,76z"/>
	<path class="st0" d="M78.8,69.2c0,1.5-1.1,2.6-2.6,2.6c-1.4,0-2.5-1.1-2.6-2.5c0-1.4,1.1-2.6,2.6-2.6
		C77.7,66.6,78.8,67.8,78.8,69.2z"/>
</g>
</svg>
