<?xml version="1.0" encoding="utf-8"?>
<!-- Generator: Adobe Illustrator 26.0.1, SVG Export Plug-In . SVG Version: 6.00 Build 0)  -->
<svg version="1.1" id="Layer_1" xmlns="http://www.w3.org/2000/svg" xmlns:xlink="http://www.w3.org/1999/xlink" x="0px" y="0px"
	 viewBox="0 0 116.2 77.5" style="enable-background:new 0 0 116.2 77.5;" xml:space="preserve">
<style type="text/css">
	.st0{fill:#FFBF00;}
</style>
<g>
	<path class="st0" d="M86.3,77.5c-18.7,0-37.4,0-56.2,0c0.1-0.3,0.1-0.5,0.2-0.7c1.8-5.5,5.1-9.9,9.7-13.4c3-2.3,6.4-3.9,10.1-4.9
		c0.3-0.1,0.5,0,0.7,0.1c5,2.9,9.9,2.9,14.9,0c0.1-0.1,0.4-0.1,0.5-0.1c8.2,2.3,14.5,7.1,18.4,14.8c0.7,1.3,1.1,2.7,1.6,4
		C86.3,77.3,86.3,77.4,86.3,77.5z"/>
	<path class="st0" d="M68.5,58.1c0.4-0.3,0.8-0.6,1.1-0.9c3.1-2.4,6.5-4.1,10.3-5.1c0.3-0.1,0.5-0.1,0.8,0.1
		c4.8,2.9,9.7,2.9,14.6,0.1c0.4-0.2,0.7-0.3,1.2-0.2c7.5,2.2,13.4,6.5,17.3,13.3c1,1.7,1.8,3.5,2.3,5.4c0,0.1,0,0.2,0.1,0.3
		c-0.2,0-0.3,0-0.4,0c-10.3,0-20.6,0-30.9,0c-0.2,0-0.4,0-0.5-0.3c-3.7-6.1-9-10.2-15.6-12.7C68.7,58.2,68.6,58.2,68.5,58.1z"/>
	<path class="st0" d="M0.1,71.8c0.4-1,0.7-1.9,1-2.8c2.3-5.5,6.1-9.7,11.1-12.9c2.5-1.5,5.1-2.7,8-3.4c0.2,0,0.5,0,0.6,0.1
		c2.5,1.6,5.3,2.3,8.2,2.2c2.4-0.1,4.6-0.9,6.7-2.2c0.2-0.1,0.4-0.2,0.6-0.1c3.9,1,7.5,2.8,10.7,5.3c0.1,0.1,0.2,0.1,0.3,0.2
		c-0.2,0.1-0.4,0.2-0.6,0.2c-6.4,2.5-11.5,6.7-15,12.7c-0.3,0.5-0.5,0.6-1,0.6c-10,0-19.9,0-29.9,0C0.6,71.8,0.4,71.8,0.1,71.8z"/>
	<path class="st0" d="M87.1,0.2c7,0,12.7,5.7,12.7,12.7c0,6.9-5.7,12.6-12.6,12.6c-7,0-12.7-5.7-12.7-12.7
		C74.5,5.9,80.1,0.2,87.1,0.2z"/>
	<path class="st0" d="M100.8,40.6c0,7-5.7,12.6-12.7,12.6c-7,0-12.7-5.7-12.7-12.6c0-7,5.7-12.7,12.6-12.7
		C95.1,27.9,100.8,33.5,100.8,40.6z"/>
	<path class="st0" d="M45.5,46.9c0-6.9,5.7-12.6,12.6-12.6c7,0,12.7,5.7,12.7,12.7c0,7-5.7,12.6-12.8,12.6
		C51.2,59.6,45.5,53.9,45.5,46.9z"/>
	<path class="st0" d="M40.8,12.7c0,7-5.7,12.6-12.8,12.6c-6.9,0-12.5-5.7-12.5-12.7c0-7,5.7-12.6,12.7-12.6
		C35.1,0,40.8,5.7,40.8,12.7z"/>
	<path class="st0" d="M28.4,54c-6.9,0-12.7-5.7-12.7-12.8c0.1-6.8,5.7-12.5,12.7-12.5c7,0,12.7,5.7,12.7,12.6
		C41.1,48.3,35.5,53.9,28.4,54z"/>
	<path class="st0" d="M52,34.8c-3.5,1.9-5.8,4.7-6.9,8.5c-1,0-2,0-3,0c0.5-5.2-1.2-9.6-5.3-12.8c-2.7-2.1-5.9-3-9.3-2.7
		c-3.9,0.3-7.1,2-9.6,5.1c-2.5,3-3.4,6.6-2.9,10.5c-5,0-9.9,0-14.9,0c0.1-0.3,0.2-0.6,0.3-0.9c2-6,5.7-10.6,10.9-14.2
		c2.7-1.8,5.7-3.1,8.8-4c0.2-0.1,0.4,0,0.6,0.1c5,3,9.9,3,14.9,0c0.1-0.1,0.4-0.1,0.5-0.1c5.7,1.6,10.6,4.5,14.6,9
		C51.1,33.7,51.5,34.2,52,34.8z"/>
	<path class="st0" d="M115.2,43.5c-4.6,0-9.1,0-13.7,0c0.9-5.5-0.6-10.1-4.9-13.6c-2.8-2.4-6.2-3.3-9.9-2.9
		c-8.1,0.8-13.9,8.7-12,16.5c-1.1,0-2.2,0-3.3,0c-1.2-4.2-3.8-7.2-7.7-9.1c0.6-0.7,1.2-1.4,1.8-2c3.8-3.9,8.4-6.6,13.6-8
		c0.2,0,0.4,0,0.6,0.1c5,2.9,9.9,2.9,14.9,0c0.2-0.1,0.4-0.2,0.7-0.1c6.2,1.7,11.4,5,15.4,10.1c2.1,2.6,3.6,5.5,4.5,8.7
		C115.2,43.3,115.2,43.4,115.2,43.5z"/>
</g>
</svg>
