<?xml version="1.0" encoding="utf-8"?>
<!-- Generator: Adobe Illustrator 26.0.1, SVG Export Plug-In . SVG Version: 6.00 Build 0)  -->
<svg version="1.1" id="Layer_1" xmlns="http://www.w3.org/2000/svg" xmlns:xlink="http://www.w3.org/1999/xlink" x="0px" y="0px"
	 viewBox="0 0 54.4 63.7" style="enable-background:new 0 0 54.4 63.7;" xml:space="preserve">
<style type="text/css">
	.st0{fill:#FFBF00;}
</style>
<g>
	<path class="st0" d="M27.9,63.7c-7.4,0-13.3-2.4-18.4-6.9c-0.7-0.6-0.9-1.2-0.7-2c0.6-2.9,1.1-5.8,1.7-8.7c0.2-0.7,0.7-1.4,1.3-1.7
		c1.9-1,4-1.8,5.9-2.8c1.6-0.8,3.2-1.8,4.7-2.8c0.8-0.5,0.6-1.2,0.1-1.9c-0.8-1.1-1.6-2.2-2.4-3.3c-0.3-0.3-0.6-0.7-0.9-0.9
		c-1.1-0.7-1.7-1.6-1.7-2.8c0-1.4-0.5-3,1-4.1c0.2-0.1,0.2-0.7,0.2-1c0.1-1.4-0.1-2.7,0.2-4.1c0.6-3,3.5-5.2,6.8-5.5
		c2.4-0.2,4.7,0.1,6.8,1.5c1.9,1.3,3,3,3.1,5.3c0,0.8,0,1.6,0,2.3c0,0.8,0.1,1.4,0.7,2.1c1.3,1.3,0.5,5.2-1,6.2
		c-0.5,0.4-0.9,0.9-1.3,1.5c-0.7,0.9-1.3,1.8-2,2.6c-0.8,0.9-0.7,1.4,0.1,2.1c1.7,1.5,3.6,2.4,5.6,3.2c1.7,0.6,3.3,1.4,4.9,2.3
		c0.6,0.3,1.1,1,1.3,1.6c0.7,2.9,1.2,5.9,1.8,8.8c0.2,0.8,0,1.4-0.6,1.9C40,61.3,34.1,63.7,27.9,63.7z"/>
	<path class="st0" d="M53.7,31.9c-1.8,0-3.5,0-5.2,0c-0.8,0-1.1,0.3-1.4,1.1c-0.9,2.6-2.3,4.9-4.1,7c-0.4,0.5-0.8,0.7-1.4,0.3
		c-1.5-0.7-3.1-1.4-4.9-2.1c4.3-3.6,6.4-8.2,5.9-13.7c-0.3-4.1-2.1-7.7-5.3-10.4c-6.5-5.5-16-5-21.7,1.2c-5.6,6-6,16.3,1.9,22.9
		c-1.8,0.8-3.5,1.6-5.3,2.3c-0.2,0.1-0.7-0.2-1-0.5c-1.8-2-3.3-4.3-4.1-6.9c-0.3-0.8-0.7-1.1-1.5-1.1c-1.7,0-3.4,0-5.1,0
		c-0.9-4.1-0.9-8-0.1-12c2.1-0.1,4.1-0.2,6.2-0.3c1-3,2.4-5.7,4.5-8c0.2-0.2,0.1-0.8-0.1-1.1c-0.8-1.6-1.6-3.1-2.5-4.7
		c2.8-2.7,6.1-4.5,9.7-5.7c0.3-0.1,0.8,0.3,1,0.6c1,1.5,1.9,3,2.7,4.3c3.4,0,6.6,0,10,0c0.8-1.2,1.7-2.8,2.7-4.2
		C35.1,0.3,35.7,0,36,0.1c3.6,1.2,6.8,3,9.6,5.7c-0.9,1.6-1.7,3.2-2.5,4.8c-0.1,0.3-0.2,0.9,0,1.1c2.1,2.4,3.5,5,4.5,8
		c2.1,0.1,4.1,0.2,6.2,0.3C54.6,23.8,54.6,27.7,53.7,31.9z"/>
</g>
</svg>
